<svg version="1.1" id="Layer_1" xmlns="http://www.w3.org/2000/svg" x="0" y="0" viewBox="0 0 128.4 128.4" xml:space="preserve"><style>.st1{fill:#242d3c}</style><path class="st1" d="M64.2 128c-29.1 0-52.8-23.7-52.8-52.8 0-29.1 23.7-52.8 52.8-52.8 29.1 0 52.8 23.7 52.8 52.8 0 29.1-23.7 52.8-52.8 52.8zm0-101C37.6 27 16 48.7 16 75.2c0 26.6 21.6 48.2 48.2 48.2s48.2-21.6 48.2-48.2c0-26.5-21.6-48.2-48.2-48.2z"/><circle cx="64.3" cy="75.3" r="38.6" fill="#ff7a00"/><path transform="rotate(-45.017 103.155 36.282)" class="st1" d="M98.6 34h9.2v4.6h-9.2z"/><path transform="rotate(-44.992 106.406 33.035)" class="st1" d="M104.1 26.1h4.6v13.8h-4.6z"/><path transform="rotate(-45.004 25.263 36.278)" class="st1" d="M23 31.7h4.6v9.2H23z"/><path transform="rotate(-44.992 22.017 33.033)" class="st1" d="M15.1 30.7h13.8v4.6H15.1z"/><path class="st1" d="M61.9 9.1h4.6v15.6h-4.6z"/><path class="st1" d="M74.3 17.9H54.1c-2.3 0-4.5-.9-6.2-2.6-1.6-1.6-2.6-3.8-2.6-6.2 0-2.3.9-4.5 2.6-6.2C49.5 1.3 51.7.3 54.1.3h20.2c2.3 0 4.5.9 6.2 2.6C82.1 4.6 83 6.8 83 9.1c0 2.3-.9 4.5-2.6 6.2-1.6 1.6-3.8 2.6-6.1 2.6zM54.1 5c-1.1 0-2.1.4-2.9 1.2C50.4 7 50 8 50 9.1c0 1.1.4 2.1 1.2 2.9.8.8 1.8 1.2 2.9 1.2h20.2c1.1 0 2.1-.4 2.9-1.2.8-.8 1.2-1.8 1.2-2.9 0-1.1-.4-2.1-1.2-2.9-.8-.8-1.8-1.2-2.9-1.2H54.1z"/><path d="M64.1 44.5v30.3m14.3 14.3L64.1 74.8" fill="none" stroke="#fff" stroke-width="4" stroke-linecap="round" stroke-miterlimit="10"/></svg>