<svg version="1.1" id="Layer_1" xmlns="http://www.w3.org/2000/svg" x="0" y="0" viewBox="0 0 128.4 128.4" xml:space="preserve"><style>.st1{fill:#242d3c}.st22{fill:none}</style><circle class="st22" cx="100" cy="89.1" r="2.3"/><path class="st22" d="M83.5 71.2V53.3c0-4 1.4-7.7 3.9-10.7V29.7H69V11.3H9.3V117h65.5V71.2h8.7zM18 25.1h30.3v4.6H18v-4.6zm0 9.2h60.7v4.6H18v-4.6zm0 9.2h60.7v4.6H18v-4.6zm53.3 13.8H18v-4.6h53.3v4.6z"/><path class="st22" d="M87.4 75.8h-8.1v32.1h8.1zm4.6 32.1h28.7V75.8H92v32.1zm8-25.7c3.8 0 6.9 3.1 6.9 6.9 0 3-1.9 5.5-4.6 6.5v5.5h-4.6v-5.5c-2.7-.9-4.6-3.5-4.6-6.5 0-3.8 3.1-6.9 6.9-6.9zM84.1 25.1L73.6 14.6v10.5zm27.8 46.1V53.3c0-3.2-1.2-6.2-3.5-8.4-2.3-2.3-5.3-3.5-8.4-3.5-3 0-5.8 1.1-8 3.1v26.7h19.9z"/><path class="st1" d="M9.3 117V11.3H69V9h4.6v5.5l10.6 10.6h5.5v4.6h-2.3v12.9c.3-.3.6-.7.9-1 1.1-1.1 2.3-2 3.7-2.8V26.5L72.2 6.7H4.7v114.9h70.1V117H9.3z"/><path class="st1" d="M87.4 29.7v-1.3l-3.3-3.3H73.6V14.6l-3.3-3.3H69v18.4z"/><path class="st1" d="M73.6 14.6V9H69v2.3h1.3zm13.8 15.1h2.3v-4.6h-5.6l3.3 3.3zM18 25.1h30.3v4.6H18zm0 9.2h60.7v4.6H18zm0 9.2h60.7v4.6H18zm0 9.2h60.7v4.6H18zm0 9.2h60.7v4.6H18zm0 9.3h51.6v4.6H18z"/><path fill="#ff7a00" d="M79.3 107.9h41.3v9.2H79.3z"/><path class="st1" d="M79.3 107.9V75.8h4.2v-4.6h-8.8V117H77v-9.1zm37.2-36.7v4.6h4.1v32.1h2.3v11.5H92v2.2H74.7v.1h50.5V71.2z"/><path class="st1" d="M92 119.4H77V117h-2.3v4.6H92zm0-2.3v2.3h30.9v-11.5h-2.3v9.2zm-15-9.2h2.3v9.1H77z"/><path class="st1" d="M79.3 117.1v-.1H77v2.4h15v-2.3zM100 41.4c3.2 0 6.2 1.2 8.4 3.5 2.3 2.3 3.5 5.3 3.5 8.4v17.9h4.6V53.3c0-4.4-1.7-8.6-4.8-11.7-3.1-3.1-7.3-4.8-11.7-4.8-2.8 0-5.6.7-8 2.1v5.6c2.2-2 5-3.1 8-3.1zM83.5 71.2h3.9V42.6c-2.5 3-3.9 6.7-3.9 10.7v17.9z"/><path class="st1" d="M87.4 42.6v28.6h.7V53.3c0-3.2 1.2-6.2 3.5-8.4l.4-.4v-5.6c-1.3.7-2.6 1.7-3.7 2.8l-.9.9zM92 71.2v4.6h24.5v-4.6h-4.6zm-8.5 0h3.9v4.6h-3.9zm8.5 4.6v-4.6h-4.6v4.6zm5.7 19.8v-1.9h4.6v1.9c2.7-.9 4.6-3.5 4.6-6.5 0-3.8-3.1-6.9-6.9-6.9s-6.9 3.1-6.9 6.9c0 3 1.9 5.5 4.6 6.5zm2.3-8.8c1.3 0 2.3 1 2.3 2.3s-1 2.3-2.3 2.3-2.3-1-2.3-2.3 1-2.3 2.3-2.3zm-2.3 8.8v5.5h4.6v-5.5c-.7.3-1.5.4-2.3.4s-1.6-.1-2.3-.4z"/><path class="st1" d="M97.7 93.7v1.9c.7.3 1.5.4 2.3.4s1.6-.1 2.3-.4v-1.9h-4.6z"/></svg>