<svg version="1.1" id="Layer_1" xmlns="http://www.w3.org/2000/svg" x="0" y="0" viewBox="0 0 128.4 128.4" xml:space="preserve"><style>.st1{fill:#242d3c}.st3{fill:#fff}</style><path class="st1" d="M117.3 121.9H11.1V56.6l53.1-38.3 53.1 38.3v65.3zM16 117.1h96.5v-58L64.2 24.2 16 59.1v58z"/><path fill="#ff7a00" d="M25.1 64.9V8.6h78.2v56.3L64.2 88.7z"/><path transform="rotate(-31.334 89.543 73.252)" class="st1" d="M59.9 70.8h59.3v4.8H59.9z"/><path transform="rotate(-58.661 38.88 73.245)" class="st1" d="M36.5 43.6h4.8v59.3h-4.8z"/><path class="st1" d="M14.8 121.6l-2.5-4.2 51.9-31.6 51.9 31.6-2.5 4.2-49.4-30.1z"/><path class="st3" d="M64.2 66.3c-12 0-21.7-9.7-21.7-21.7s9.7-21.7 21.7-21.7 21.7 9.7 21.7 21.7c0 1.3-1.1 2.4-2.4 2.4-1.3 0-2.4-1.1-2.4-2.4 0-9.3-7.6-16.9-16.9-16.9-9.3 0-16.9 7.6-16.9 16.9 0 9.3 7.6 16.9 16.9 16.9 3 0 5.9-.8 8.4-2.3 1.2-.7 2.6-.3 3.3.9.7 1.2.3 2.6-.9 3.3-3.2 1.9-7 2.9-10.8 2.9z"/><path class="st3" d="M64.2 56.7c-6.6 0-12.1-5.4-12.1-12.1 0-6.6 5.4-12.1 12.1-12.1 6.6 0 12.1 5.4 12.1 12.1 0 6.7-5.4 12.1-12.1 12.1zm0-19.3c-4 0-7.2 3.2-7.2 7.2s3.2 7.2 7.2 7.2 7.2-3.2 7.2-7.2-3.2-7.2-7.2-7.2z"/><path class="st3" d="M78.7 56.7c-1.9 0-3.7-.8-5.1-2.1-1.4-1.3-2.1-3.2-2.1-5.1v-4.8c0-1.3 1.1-2.4 2.4-2.4 1.3 0 2.4 1.1 2.4 2.4v4.8c0 .6.2 1.3.7 1.7.9.9 2.5.9 3.4 0 .4-.4.7-1 .7-1.7v-4.8c0-1.3 1.1-2.4 2.4-2.4 1.3 0 2.4 1.1 2.4 2.4v4.8c0 1.9-.7 3.7-2.1 5.1-1.4 1.3-3.2 2.1-5.1 2.1z"/><path class="st1" d="M53.4 108h4.3v4.8h-4.3zm8.6 0h4.3v4.8H62zm8.7 0H75v4.8h-4.3z"/></svg>