<svg version="1.1" id="Layer_1" xmlns="http://www.w3.org/2000/svg" x="0" y="0" viewBox="0 0 128.4 128.4" xml:space="preserve"><style>.st1{fill:#242d3c}</style><path class="st1" d="M112.6 42.6h-4.7v-9.1H9.7c-.9 0-1.7.3-2.3 1-.6.6-1 1.5-1 2.4H1.7c0-2.2.8-4.2 2.3-5.8 1.5-1.5 3.5-2.4 5.7-2.4h103v13.9z"/><path fill="#ff7a00" d="M16.3 19.6h81.8v23H16.3z"/><path class="st1" d="M122 116.9H9.7c-2.1 0-4.1-.8-5.7-2.4-1.5-1.5-2.3-3.6-2.3-5.8V36.8h4.7c0 .9.3 1.7 1 2.4.6.6 1.4 1 2.3 1H122v29.3h-4.7V45H9.7c-1.2 0-2.3-.2-3.3-.7v64.5c0 .9.3 1.7 1 2.4.6.6 1.4 1 2.3 1h107.7V87.7h4.7v29.2z"/><path class="st1" d="M11.1 102.5h4.7v4.8h-4.7zm4.7-4.3h-4.7v-4.4h4.7v4.4zm0-8.7h-4.7v-4.4h4.7v4.4zm0-8.7h-4.7v-4.4h4.7v4.4zm0-8.8h-4.7v-4.4h4.7V72zm0-8.7h-4.7V59h4.7v4.3zm-4.7-13.5h4.7v4.8h-4.7zm92 4.8h-4.9v-4.8h4.9v4.8zm-9.7 0h-4.9v-4.8h4.9v4.8zm-9.7 0h-4.8v-4.8h4.8v4.8zm-9.7 0h-4.9v-4.8H74v4.8zm-9.7 0h-4.9v-4.8h4.9v4.8zm-9.7 0h-4.9v-4.8h4.9v4.8zm-9.7 0H40v-4.8h4.9v4.8zm-9.7 0h-4.8v-4.8h4.8v4.8zm-9.7 0h-4.9v-4.8h4.9v4.8zm82.4-4.8h4.7v4.8h-4.7zm4.7 48.4h-4.7v-4.4h4.7v4.4zm0-34.9h-4.7V59h4.7v4.3zm-4.7 39.2h4.7v4.8h-4.7zm-4.8 4.8h-4.9v-4.8h4.9v4.8zm-9.7 0h-4.9v-4.8h4.9v4.8zm-9.7 0h-4.8v-4.8h4.8v4.8zm-9.7 0h-4.9v-4.8H74v4.8zm-9.7 0h-4.9v-4.8h4.9v4.8zm-9.7 0h-4.8v-4.8h4.8v4.8zm-9.7 0H40v-4.8h4.9v4.8zm-9.7 0h-4.9v-4.8h4.9v4.8zm-9.7 0h-4.9v-4.8h4.9v4.8zm101.2-17.2h-26.3c-3 0-5.8-1.2-8-3.4-2.1-2.2-3.3-5.1-3.3-8.1s1.2-6 3.3-8.1c2.1-2.2 5-3.4 8-3.4h26.3v23zm-26.3-18.2c-1.8 0-3.4.7-4.7 2-1.2 1.3-1.9 3-1.9 4.7s.7 3.5 1.9 4.7c1.2 1.3 2.9 2 4.7 2H122V71.9h-21.6z"/><path class="st1" d="M98.1 76.2h4.7V81h-4.7z"/></svg>