<svg version="1.1" id="Layer_1" xmlns="http://www.w3.org/2000/svg" x="0" y="0" viewBox="0 0 128.4 128.4" xml:space="preserve"><style>.st1{fill:#242d3c}</style><path d="M84.1 55.5c0 16-13 28.9-28.9 28.9-16 0-28.9-13-28.9-28.9 0-16 13-28.9 28.9-28.9 15.9-.1 28.9 12.9 28.9 28.9z" fill="#ff7a00"/><path class="st1" d="M55.2 94.8c-10.5 0-20.4-4.1-27.8-11.5-7.5-7.5-11.5-17.3-11.5-27.8S20 35.1 27.4 27.7c7.4-7.4 17.3-11.5 27.8-11.5S75.6 20.3 83 27.7C98.3 43 98.3 67.9 83 83.2c-7.5 7.5-17.3 11.6-27.8 11.6zm0-74.1c-9.3 0-18 3.6-24.5 10.2-6.6 6.6-10.2 15.3-10.2 24.5 0 9.3 3.6 18 10.2 24.5 6.6 6.6 15.3 10.2 24.5 10.2 9.3 0 18-3.6 24.5-10.2 13.5-13.5 13.5-35.6 0-49.1-6.5-6.5-15.3-10.1-24.5-10.1z"/><path transform="rotate(-45.001 85.26 85.553)" class="st1" d="M83 80h4.6v11.1H83z"/><path class="st1" d="M115.4 125.3c-2.6 0-5-1-6.9-2.8L80.7 94.7 94.4 81l27.8 27.8c1.8 1.8 2.8 4.3 2.8 6.9 0 2.6-1 5-2.8 6.9-1.8 1.7-4.2 2.7-6.8 2.7zM87.2 94.7l24.5 24.5c1 1 2.2 1.5 3.6 1.5s2.6-.5 3.6-1.5 1.5-2.2 1.5-3.6-.5-2.6-1.5-3.6L94.4 87.5l-7.2 7.2z"/><path transform="rotate(-45.001 21.137 21.43)" class="st1" d="M18.8 17.7h4.6v7.4h-4.6z"/><path transform="rotate(-22.497 36.748 11)" class="st1" d="M34.5 7.3h4.6v7.4h-4.6z"/><path class="st1" d="M52.9 3.6h4.6V11h-4.6z"/><path transform="rotate(-67.505 73.573 11)" class="st1" d="M69.9 8.7h7.4v4.6h-7.4z"/><path transform="rotate(-44.992 89.184 21.43)" class="st1" d="M85.5 19.1h7.4v4.6h-7.4z"/><path transform="rotate(-22.49 99.626 37.04)" class="st1" d="M95.9 34.7h7.4v4.6h-7.4z"/><path class="st1" d="M99.6 53.2h7.4v4.6h-7.4z"/><path transform="rotate(-67.492 10.709 37.042)" class="st1" d="M8.4 33.3H13v7.4H8.4z"/><path class="st1" d="M3.3 53.2h7.4v4.6H3.3z"/><path transform="rotate(-22.5 10.709 73.872)" class="st1" d="M7 71.6h7.4v4.6H7z"/><path transform="rotate(-45.001 21.136 89.477)" class="st1" d="M17.4 87.2h7.4v4.6h-7.4z"/><path transform="rotate(-67.487 36.748 99.907)" class="st1" d="M33 97.6h7.4v4.6H33z"/><path class="st1" d="M52.9 99.9h4.6v7.4h-4.6z"/><path fill="#fff" d="M51.1 69.5L36.6 55l4.9-4.9 9.6 9.6 17.5-17.5 4.9 4.9z"/></svg>