<svg version="1.1" id="Layer_1" xmlns="http://www.w3.org/2000/svg" x="0" y="0" viewBox="0 0 128.4 128.4" xml:space="preserve"><style>.st1{fill:#242d3c}.st4{fill:#ff7a00}</style><path class="st4" d="M84.3 74.3l-27.6 27.6-11.4-11.5-27.8 27.8h110.7z"/><path transform="rotate(-45.009 108.958 83.264)" class="st1" d="M106.7 60.1h4.5v46.4h-4.5z"/><path class="st1" d="M24.2 83.3L21 80.1l44-44 12.7 12.7-3.2 3.2-9.5-9.5zM3.4 119.7l-3.2-3.1 45.1-45.1L56.7 83 102 37.7l3.2 3.2-48.5 48.5-11.4-11.5z"/><path class="st1" d="M105.9 53.1h-4.5V41.6H89.8v-4.5h16.1z"/><path class="st4" d="M88.1 6.6H65v16.6h23.1l-8.3-8.3z"/><path class="st1" d="M62.7 6.6h4.5v32.7h-4.5z"/></svg>