<svg id="OBJECTS" xmlns="http://www.w3.org/2000/svg" viewBox="0 0 336.88 65.73"><defs><style>.cls-1{fill:#202020}</style></defs><circle class="cls-1" cx="163.39" cy="33.27" r="27.12"/><path d="M152.54 51.91a18.56 18.56 0 01-7.27-6.29 19.47 19.47 0 01-3.61-9l-9.44-13.27-.11.24a26.38 26.38 0 00-2 14.68 31.22 31.22 0 005.54 14.19 29.61 29.61 0 0019.47 12.64 29 29 0 007.1.39zM184.7 29a18.64 18.64 0 00-3.56-8.94 19.63 19.63 0 00-7.31-6.35L164.39.48h.26a26.39 26.39 0 0114.53 2.91 31.29 31.29 0 0111.58 9.88q7.47 10.52 5.56 22.55a28.91 28.91 0 01-1.95 6.83z" fill="#1c73b7"/><path d="M164.15 16.36a17.6 17.6 0 018.29 2.08 14.9 14.9 0 016.06 5.7.65.65 0 01-.12 1l-3.8 2.9c-.4.4-.78.36-1.15-.12a11 11 0 00-9.28-4.92 9.65 9.65 0 00-7.26 2.84 10.12 10.12 0 00-2.74 7.35 10.36 10.36 0 002.77 7.44 9.52 9.52 0 007.23 2.93 10.84 10.84 0 009.47-5.07.65.65 0 011 0l3.8 3a.66.66 0 01.12 1 15.63 15.63 0 01-6 5.73 17.37 17.37 0 01-8.32 2 16.64 16.64 0 01-17-17 16.16 16.16 0 014.89-12 16.61 16.61 0 0112.04-4.86z" fill="#fff"/><path class="cls-1" d="M28.89 48.85l-2.29-5.66H10.2L7.91 49a1.05 1.05 0 01-1 .73h-6c-.6 0-.8-.28-.6-.85l14.23-31.55a.76.76 0 01.79-.49h6.87a.75.75 0 01.78.49l13.57 31.4a.76.76 0 01-.06.66.65.65 0 01-.61.31h-5.72a1.27 1.27 0 01-1.27-.85zm-10.67-25.5l-5.48 13.51h11.45l-5.31-13.51zm45.65 8.32v.42a8.66 8.66 0 014.19 3 7.52 7.52 0 011.48 4.64 9.22 9.22 0 01-3.1 7.23 11.81 11.81 0 01-8.17 2.78H40.91a.75.75 0 01-.85-.85v-31.2a.76.76 0 01.85-.85H57a10.86 10.86 0 017.48 2.57 8.19 8.19 0 012.89 6.42 6.11 6.11 0 01-3.5 5.84zM47 23.35v6.27h10.06a3.45 3.45 0 002.41-.87 2.89 2.89 0 001-2.26 3 3 0 00-.91-2.29 3.48 3.48 0 00-2.47-.85zm0 12.78v7h11.09a5.16 5.16 0 003.28-.94 3.08 3.08 0 001.18-2.56q0-3.5-4.46-3.5zm25-19.29h28a.75.75 0 01.84.85v4.94a.74.74 0 01-.84.84H89.46v25.38a.75.75 0 01-.84.85h-5.31a.75.75 0 01-.84-.85V23.47H72a.74.74 0 01-.84-.84v-4.94a.75.75 0 01.84-.85zm29.75 16.46a16.09 16.09 0 015.07-12.06 17.74 17.74 0 0124.44 0 16.17 16.17 0 015 12.06 16.07 16.07 0 01-5 12 17.9 17.9 0 01-24.47 0 16 16 0 01-5.04-12zm17.3-10.37a9.94 9.94 0 00-7.38 2.9 10.15 10.15 0 00-2.87 7.47 10.08 10.08 0 002.87 7.41 9.94 9.94 0 007.38 2.9 9.82 9.82 0 007.33-2.93 10.14 10.14 0 002.86-7.38 10.19 10.19 0 00-2.86-7.47 9.87 9.87 0 00-7.33-2.9zm87.32-2.08v-3.07a.75.75 0 01.84-.85h5.25a.75.75 0 01.84.85v3.07h4.89a13.29 13.29 0 019.16 3.53 11.52 11.52 0 013.92 9 11.36 11.36 0 01-3.92 8.86 13.35 13.35 0 01-9.16 3.5h-4.89v3.73a.75.75 0 01-.84.85h-5.25a.75.75 0 01-.84-.85v-3.78h-4.88a13.36 13.36 0 01-9.17-3.5 11.35 11.35 0 01-3.91-8.86 11.51 11.51 0 013.91-8.95 13.3 13.3 0 019.17-3.53zm0 18.39V27.3h-4.7a6.29 6.29 0 00-4.55 1.6 5.85 5.85 0 00-1.66 4.43 5.64 5.64 0 001.66 4.37 6.4 6.4 0 004.55 1.54zm6.93-11.94v11.94h4.7a6.4 6.4 0 004.55-1.54 5.64 5.64 0 001.66-4.37 5.85 5.85 0 00-1.66-4.43 6.29 6.29 0 00-4.55-1.6z"/><path d="M286.24 24.05h-8.74 8.74zm29.22 5.99l-3 7.39h11.45l-5.3-13.5h-.21v6.11h-2.94z" fill="none"/><path class="cls-1" d="M263.39 23.08v-4.82a.74.74 0 00-.84-.84h-24.41a.85.85 0 00-.58.24.77.77 0 00-.27.6v5.65h25.35a.72.72 0 00.75-.83zM263 43.7h-18.72v-7.11h16a.75.75 0 00.84-.85v-4.82a.74.74 0 00-.84-.84h-23v19.34a.75.75 0 00.85.85H263a.75.75 0 00.84-.85v-4.88a.74.74 0 00-.84-.84zm23.24-26.28h-14.89a.74.74 0 00-.84.84v5.79h15.75a5.85 5.85 0 014.23 1.47 5.18 5.18 0 011.51 3.89 5.33 5.33 0 01-1.53 4 5.8 5.8 0 01-4.25 1.51h-8.72V30h-7v19.42a.75.75 0 00.84.85h5.3a.75.75 0 00.85-.85v-7.89h8.74a12.81 12.81 0 009.13-3.44 11.42 11.42 0 003.64-8.68 11.28 11.28 0 00-3.68-8.53 12.76 12.76 0 00-9.08-3.46zm50.03 31.88l-13.56-31.4a.76.76 0 00-.79-.48h-6.87a.74.74 0 00-.78.48l-2.72 6h7.05l5.31 13.52h-11.45l3-7.39h-6.67L300 49.42c-.2.57 0 .85.6.85h6a1.05 1.05 0 001-.72l2.29-5.79h16.39l2.29 5.66a1.28 1.28 0 001.27.85h5.73a.64.64 0 00.6-.3.78.78 0 00.1-.67z"/></svg>