<svg version="1.0" xmlns="http://www.w3.org/2000/svg" width="682.667" height="682.667" viewBox="0 0 512 512"><g fill="#ff7a00"><path d="M243.5 75.3c-2.2.8-5.6 2.2-7.5 3.2-4.2 2.2-205.6 130.8-215.6 137.7-23.8 16.3-27.1 48-7.1 68 13.8 13.8 35.8 16.7 52.7 7 2.5-1.5 46.2-29.3 97.3-61.9l92.7-59.2 92.8 59.3c51 32.6 94.7 60.4 97.2 61.8 16.8 9.8 38.5 7 52.6-6.7 12.3-12.1 16.4-30.7 10.3-47-2.6-6.9-9-15.4-14.9-19.8-8.8-6.5-215.6-138.1-221-140.6-4.5-2.1-7.3-2.6-15.5-2.8-6.3-.2-11.5.2-14 1z"/><path d="M242 217.3c-8.3 2.9-219.4 137.5-228 145.4-19.9 18.3-17.8 50.8 4.1 66.9 13.2 9.6 31.7 11.2 46 3.8 1.9-.9 45.6-28.6 97.1-61.5 51.6-33 94.2-59.9 94.8-59.9.6 0 43.4 27 95.1 60.1 51.6 33 96.5 61.2 99.7 62.7 5.1 2.4 6.8 2.7 17.2 2.7 11 0 11.8-.2 18.2-3.3 9.2-4.5 15.8-10.7 20.1-19 9.5-18.1 6.2-39.1-8.3-52.5-8.5-7.9-219.7-142.5-228-145.4-8.8-3-19.2-3-28 0z"/></g></svg>