<?xml version="1.0" encoding="utf-8"?>
<!-- Generator: Adobe Illustrator 22.1.0, SVG Export Plug-In . SVG Version: 6.00 Build 0)  -->
<svg version="1.1" id="Layer_1" xmlns="http://www.w3.org/2000/svg" xmlns:xlink="http://www.w3.org/1999/xlink" x="0px" y="0px"
	 viewBox="0 0 128.4 128.4" style="enable-background:new 0 0 128.4 128.4;" xml:space="preserve">
<style type="text/css">
	.st0{fill:#43D3E8;}
	.st1{fill:#242D3C;}
	.st2{fill:#F96232;}
	.st3{fill:#FFFFFF;}
	.st4{fill:#FF7A00;}
	.st5{fill:#F26134;}
	.st6{fill:none;stroke:#242D3C;stroke-width:5;stroke-miterlimit:10;}
	.st7{fill:none;stroke:#242D3C;stroke-width:4.5;stroke-miterlimit:10;}
	.st8{fill:none;stroke:#FFFFFF;stroke-width:4.5;stroke-miterlimit:10;}
	.st9{fill:#3485CD;}
	.st10{fill:none;stroke:#FFFFFF;stroke-width:4;stroke-linecap:round;stroke-miterlimit:10;}
	.st11{fill-rule:evenodd;clip-rule:evenodd;fill:#F96232;}
	.st12{fill-rule:evenodd;clip-rule:evenodd;fill:#43D3E8;}
	.st13{fill:none;stroke:#242D3C;stroke-width:2.5;stroke-linecap:round;stroke-miterlimit:10;}
	.st14{fill:none;stroke:#242D3C;stroke-width:2.8;stroke-linecap:round;stroke-miterlimit:10;}
	.st15{fill:none;stroke:#242D3C;stroke-width:4;stroke-linecap:round;stroke-miterlimit:10;}
	.st16{fill:none;stroke:#242D3C;stroke-width:1.7;stroke-linecap:round;stroke-miterlimit:10;}
	.st17{fill:none;stroke:#F26134;stroke-miterlimit:10;}
	.st18{fill:none;stroke:#242D3C;stroke-width:1.8;stroke-linecap:round;stroke-miterlimit:10;}
	.st19{fill:none;stroke:#242D3C;stroke-width:0.75;stroke-linecap:round;stroke-miterlimit:10;}
	.st20{fill:#56C7DF;}
	.st21{fill:none;stroke:#242D3C;stroke-width:4.4661;stroke-miterlimit:10;}
	.st22{fill:none;}
</style>
<g>
	<g>
		<path class="st1" d="M112.6,42.6h-4.7v-9.1H9.7c-0.9,0-1.7,0.3-2.3,1c-0.6,0.6-1,1.5-1,2.4H1.7c0-2.2,0.8-4.2,2.3-5.8
			c1.5-1.5,3.5-2.4,5.7-2.4h103V42.6z"/>
		<rect x="16.3" y="19.6" class="st4" width="81.8" height="23"/>
		<path class="st1" d="M122,116.9H9.7c-2.1,0-4.1-0.8-5.7-2.4c-1.5-1.5-2.3-3.6-2.3-5.8V36.8h4.7c0,0.9,0.3,1.7,1,2.4
			c0.6,0.6,1.4,1,2.3,1H122v29.3h-4.7V45H9.7c-1.2,0-2.3-0.2-3.3-0.7v64.5c0,0.9,0.3,1.7,1,2.4c0.6,0.6,1.4,1,2.3,1h107.7V87.7h4.7
			V116.9z"/>
		<g>
			<rect x="11.1" y="102.5" class="st1" width="4.7" height="4.8"/>
			<path class="st1" d="M15.8,98.2h-4.7v-4.4h4.7V98.2z M15.8,89.5h-4.7v-4.4h4.7V89.5z M15.8,80.8h-4.7v-4.4h4.7V80.8z M15.8,72
				h-4.7v-4.4h4.7V72z M15.8,63.3h-4.7V59h4.7V63.3z"/>
			<rect x="11.1" y="49.8" class="st1" width="4.7" height="4.8"/>
			<path class="st1" d="M103.1,54.6h-4.9v-4.8h4.9V54.6z M93.4,54.6h-4.9v-4.8h4.9V54.6z M83.7,54.6h-4.8v-4.8h4.8V54.6z M74,54.6
				h-4.9v-4.8H74V54.6z M64.3,54.6h-4.9v-4.8h4.9V54.6z M54.6,54.6h-4.9v-4.8h4.9V54.6z M44.9,54.6H40v-4.8h4.9V54.6z M35.2,54.6
				h-4.8v-4.8h4.8V54.6z M25.5,54.6h-4.9v-4.8h4.9V54.6z"/>
			<rect x="107.9" y="49.8" class="st1" width="4.7" height="4.8"/>
			<path class="st1" d="M112.6,98.2h-4.7v-4.4h4.7V98.2z M112.6,63.3h-4.7V59h4.7V63.3z"/>
			<rect x="107.9" y="102.5" class="st1" width="4.7" height="4.8"/>
			<path class="st1" d="M103.1,107.3h-4.9v-4.8h4.9V107.3z M93.4,107.3h-4.9v-4.8h4.9V107.3z M83.7,107.3h-4.8v-4.8h4.8V107.3z
				 M74,107.3h-4.9v-4.8H74V107.3z M64.3,107.3h-4.9v-4.8h4.9V107.3z M54.6,107.3h-4.8v-4.8h4.8V107.3z M44.9,107.3H40v-4.8h4.9
				V107.3z M35.2,107.3h-4.9v-4.8h4.9V107.3z M25.5,107.3h-4.9v-4.8h4.9V107.3z"/>
		</g>
		<g>
			<path class="st1" d="M126.7,90.1h-26.3c-3,0-5.8-1.2-8-3.4c-2.1-2.2-3.3-5.1-3.3-8.1s1.2-6,3.3-8.1c2.1-2.2,5-3.4,8-3.4h26.3
				V90.1z M100.4,71.9c-1.8,0-3.4,0.7-4.7,2c-1.2,1.3-1.9,3-1.9,4.7s0.7,3.5,1.9,4.7c1.2,1.3,2.9,2,4.7,2H122V71.9H100.4z"/>
			<rect x="98.1" y="76.2" class="st1" width="4.7" height="4.8"/>
		</g>
	</g>
</g>
</svg>
