<?xml version="1.0" encoding="utf-8"?>
<!-- Generator: Adobe Illustrator 22.1.0, SVG Export Plug-In . SVG Version: 6.00 Build 0)  -->
<svg version="1.1" id="Layer_1" xmlns="http://www.w3.org/2000/svg" xmlns:xlink="http://www.w3.org/1999/xlink" x="0px" y="0px"
	 viewBox="0 0 128.4 128.4" style="enable-background:new 0 0 128.4 128.4;" xml:space="preserve">
<style type="text/css">
	.st0{fill:#43D3E8;}
	.st1{fill:#242D3C;}
	.st2{fill:#F96232;}
	.st3{fill:#FFFFFF;}
	.st4{fill:#FF7A00;}
	.st5{fill:#F26134;}
	.st6{fill:none;stroke:#242D3C;stroke-width:5;stroke-miterlimit:10;}
	.st7{fill:none;stroke:#242D3C;stroke-width:4.5;stroke-miterlimit:10;}
	.st8{fill:none;stroke:#FFFFFF;stroke-width:4.5;stroke-miterlimit:10;}
	.st9{fill:#3485CD;}
	.st10{fill:none;stroke:#FFFFFF;stroke-width:4;stroke-linecap:round;stroke-miterlimit:10;}
	.st11{fill-rule:evenodd;clip-rule:evenodd;fill:#F96232;}
	.st12{fill-rule:evenodd;clip-rule:evenodd;fill:#43D3E8;}
	.st13{fill:none;stroke:#242D3C;stroke-width:2.5;stroke-linecap:round;stroke-miterlimit:10;}
	.st14{fill:none;stroke:#242D3C;stroke-width:2.8;stroke-linecap:round;stroke-miterlimit:10;}
	.st15{fill:none;stroke:#242D3C;stroke-width:4;stroke-linecap:round;stroke-miterlimit:10;}
	.st16{fill:none;stroke:#242D3C;stroke-width:1.7;stroke-linecap:round;stroke-miterlimit:10;}
	.st17{fill:none;stroke:#F26134;stroke-miterlimit:10;}
	.st18{fill:none;stroke:#242D3C;stroke-width:1.8;stroke-linecap:round;stroke-miterlimit:10;}
	.st19{fill:none;stroke:#242D3C;stroke-width:0.75;stroke-linecap:round;stroke-miterlimit:10;}
	.st20{fill:#56C7DF;}
	.st21{fill:none;stroke:#242D3C;stroke-width:4.4661;stroke-miterlimit:10;}
	.st22{fill:none;}
</style>
<g>
	<g>
		<g>
			<path class="st4" d="M84.1,55.5c0,16-13,28.9-28.9,28.9c-16,0-28.9-13-28.9-28.9c0-16,13-28.9,28.9-28.9
				C71.1,26.5,84.1,39.5,84.1,55.5z"/>
		</g>
		<g>
			<path class="st1" d="M55.2,94.8c-10.5,0-20.4-4.1-27.8-11.5C19.9,75.8,15.9,66,15.9,55.5c0-10.5,4.1-20.4,11.5-27.8
				c7.4-7.4,17.3-11.5,27.8-11.5c10.5,0,20.4,4.1,27.8,11.5C98.3,43,98.3,67.9,83,83.2C75.5,90.7,65.7,94.8,55.2,94.8z M55.2,20.7
				c-9.3,0-18,3.6-24.5,10.2c-6.6,6.6-10.2,15.3-10.2,24.5c0,9.3,3.6,18,10.2,24.5c6.6,6.6,15.3,10.2,24.5,10.2
				c9.3,0,18-3.6,24.5-10.2c13.5-13.5,13.5-35.6,0-49.1C73.2,24.3,64.4,20.7,55.2,20.7z"/>
			<rect x="83" y="80" transform="matrix(0.7071 -0.7071 0.7071 0.7071 -35.5224 85.3454)" class="st1" width="4.6" height="11.1"/>
			<path class="st1" d="M115.4,125.3c-2.6,0-5-1-6.9-2.8L80.7,94.7L94.4,81l27.8,27.8c1.8,1.8,2.8,4.3,2.8,6.9c0,2.6-1,5-2.8,6.9
				C120.4,124.3,118,125.3,115.4,125.3z M87.2,94.7l24.5,24.5c1,1,2.2,1.5,3.6,1.5c1.4,0,2.6-0.5,3.6-1.5c1-1,1.5-2.2,1.5-3.6
				c0-1.4-0.5-2.6-1.5-3.6L94.4,87.5L87.2,94.7z"/>
		</g>
		<g>
			
				<rect x="18.8" y="17.7" transform="matrix(0.7071 -0.7071 0.7071 0.7071 -8.9619 21.2226)" class="st1" width="4.6" height="7.4"/>
			
				<rect x="34.5" y="7.3" transform="matrix(0.9239 -0.3826 0.3826 0.9239 -1.4119 14.8968)" class="st1" width="4.6" height="7.4"/>
			<rect x="52.9" y="3.6" class="st1" width="4.6" height="7.4"/>
			
				<rect x="69.9" y="8.7" transform="matrix(0.3826 -0.9239 0.9239 0.3826 35.2609 74.7654)" class="st1" width="7.4" height="4.6"/>
			<rect x="85.5" y="19.1" transform="matrix(0.7072 -0.707 0.707 0.7072 10.9625 69.3275)" class="st1" width="7.4" height="4.6"/>
			
				<rect x="95.9" y="34.7" transform="matrix(0.9239 -0.3825 0.3825 0.9239 -6.5912 40.9236)" class="st1" width="7.4" height="4.6"/>
			<rect x="99.6" y="53.2" class="st1" width="7.4" height="4.6"/>
			
				<rect x="8.4" y="33.3" transform="matrix(0.3828 -0.9238 0.9238 0.3828 -27.6103 32.7543)" class="st1" width="4.6" height="7.4"/>
			<rect x="3.3" y="53.2" class="st1" width="7.4" height="4.6"/>
			<rect x="7" y="71.6" transform="matrix(0.9239 -0.3827 0.3827 0.9239 -27.4557 9.7218)" class="st1" width="7.4" height="4.6"/>
			
				<rect x="17.4" y="87.2" transform="matrix(0.7071 -0.7071 0.7071 0.7071 -57.0782 41.1528)" class="st1" width="7.4" height="4.6"/>
			
				<rect x="33" y="97.6" transform="matrix(0.3829 -0.9238 0.9238 0.3829 -69.6172 95.6005)" class="st1" width="7.4" height="4.6"/>
			<rect x="52.9" y="99.9" class="st1" width="4.6" height="7.4"/>
		</g>
	</g>
</g>
<g>
	<g>
		<polygon class="st3" points="51.1,69.5 36.6,55 41.5,50.1 51.1,59.7 68.6,42.2 73.5,47.1 		"/>
	</g>
</g>
</svg>
