<?xml version="1.0" encoding="utf-8"?>
<!-- Generator: Adobe Illustrator 22.1.0, SVG Export Plug-In . SVG Version: 6.00 Build 0)  -->
<svg version="1.1" id="Layer_1" xmlns="http://www.w3.org/2000/svg" xmlns:xlink="http://www.w3.org/1999/xlink" x="0px" y="0px"
	 viewBox="0 0 128.4 128.4" style="enable-background:new 0 0 128.4 128.4;" xml:space="preserve">
<style type="text/css">
	.st0{fill:#43D3E8;}
	.st1{fill:#242D3C;}
	.st2{fill:#F96232;}
	.st3{fill:#FFFFFF;}
	.st4{fill:#FF7A00;}
	.st5{fill:#F26134;}
	.st6{fill:none;stroke:#242D3C;stroke-width:5;stroke-miterlimit:10;}
	.st7{fill:none;stroke:#242D3C;stroke-width:4.5;stroke-miterlimit:10;}
	.st8{fill:none;stroke:#FFFFFF;stroke-width:4.5;stroke-miterlimit:10;}
	.st9{fill:#3485CD;}
	.st10{fill:none;stroke:#FFFFFF;stroke-width:4;stroke-linecap:round;stroke-miterlimit:10;}
	.st11{fill-rule:evenodd;clip-rule:evenodd;fill:#F96232;}
	.st12{fill-rule:evenodd;clip-rule:evenodd;fill:#43D3E8;}
	.st13{fill:none;stroke:#242D3C;stroke-width:2.5;stroke-linecap:round;stroke-miterlimit:10;}
	.st14{fill:none;stroke:#242D3C;stroke-width:2.8;stroke-linecap:round;stroke-miterlimit:10;}
	.st15{fill:none;stroke:#242D3C;stroke-width:4;stroke-linecap:round;stroke-miterlimit:10;}
	.st16{fill:none;stroke:#242D3C;stroke-width:1.7;stroke-linecap:round;stroke-miterlimit:10;}
	.st17{fill:none;stroke:#F26134;stroke-miterlimit:10;}
	.st18{fill:none;stroke:#242D3C;stroke-width:1.8;stroke-linecap:round;stroke-miterlimit:10;}
	.st19{fill:none;stroke:#242D3C;stroke-width:0.75;stroke-linecap:round;stroke-miterlimit:10;}
	.st20{fill:#56C7DF;}
	.st21{fill:none;stroke:#242D3C;stroke-width:4.4661;stroke-miterlimit:10;}
	.st22{fill:none;}
</style>
<g>
	<circle class="st22" cx="100" cy="89.1" r="2.3"/>
	<path class="st22" d="M83.5,71.2V53.3c0-4,1.4-7.7,3.9-10.7V29.7H69V11.3H9.3V117h65.5V71.2H83.5z M18,25.1h30.3v4.6H18V25.1z
		 M18,34.3h60.7v4.6H18V34.3z M18,43.5h60.7v4.6H18V43.5z M71.3,57.3H18v-4.6h53.3V57.3z"/>
	<polygon class="st22" points="87.4,75.8 83.5,75.8 79.3,75.8 79.3,107.9 87.4,107.9 	"/>
	<path class="st22" d="M92,107.9h28.7V75.8h-4.1H92V107.9z M100,82.2c3.8,0,6.9,3.1,6.9,6.9c0,3-1.9,5.5-4.6,6.5v5.5h-4.6v-5.5
		c-2.7-0.9-4.6-3.5-4.6-6.5C93.1,85.3,96.2,82.2,100,82.2z"/>
	<polygon class="st22" points="84.1,25.1 73.6,14.6 73.6,25.1 	"/>
	<path class="st22" d="M111.9,71.2V53.3c0-3.2-1.2-6.2-3.5-8.4c-2.3-2.3-5.3-3.5-8.4-3.5c-3,0-5.8,1.1-8,3.1v26.7H111.9z"/>
	<path class="st1" d="M9.3,117V11.3H69V9h4.6v5.5l10.6,10.6h5.5v4.6h-2.3v12.9c0.3-0.3,0.6-0.7,0.9-1c1.1-1.1,2.3-2,3.7-2.8V26.5
		L72.2,6.7H4.7v114.9h70.1V117H9.3z"/>
	<polygon class="st1" points="87.4,29.7 87.4,28.4 84.1,25.1 73.6,25.1 73.6,14.6 70.3,11.3 69,11.3 69,29.7 	"/>
	<polygon class="st1" points="73.6,14.6 73.6,9 69,9 69,11.3 70.3,11.3 	"/>
	<polygon class="st1" points="87.4,29.7 89.7,29.7 89.7,25.1 84.1,25.1 87.4,28.4 	"/>
	<rect x="18" y="25.1" class="st1" width="30.3" height="4.6"/>
	<rect x="18" y="34.3" class="st1" width="60.7" height="4.6"/>
	<rect x="18" y="43.5" class="st1" width="60.7" height="4.6"/>
	<rect x="18" y="52.7" class="st1" width="60.7" height="4.6"/>
	<rect x="18" y="61.9" class="st1" width="60.7" height="4.6"/>
	<rect x="18" y="71.2" class="st1" width="51.6" height="4.6"/>
	<rect x="79.3" y="107.9" class="st4" width="41.3" height="9.2"/>
	<polygon class="st1" points="79.3,107.9 79.3,75.8 83.5,75.8 83.5,71.2 74.7,71.2 74.7,117 77,117 77,107.9 	"/>
	<polygon class="st1" points="116.5,71.2 116.5,75.8 120.6,75.8 120.6,107.9 122.9,107.9 122.9,119.4 92,119.4 92,121.6 74.7,121.6 
		74.7,121.7 125.2,121.7 125.2,71.2 	"/>
	<polygon class="st1" points="92,119.4 77,119.4 77,117 74.7,117 74.7,121.6 92,121.6 	"/>
	<polygon class="st1" points="92,117.1 92,119.4 122.9,119.4 122.9,107.9 120.6,107.9 120.6,117.1 	"/>
	<rect x="77" y="107.9" class="st1" width="2.3" height="9.1"/>
	<polygon class="st1" points="79.3,117.1 79.3,117 77,117 77,119.4 92,119.4 92,117.1 	"/>
	<path class="st1" d="M100,41.4c3.2,0,6.2,1.2,8.4,3.5c2.3,2.3,3.5,5.3,3.5,8.4v17.9h4.6V53.3c0-4.4-1.7-8.6-4.8-11.7
		c-3.1-3.1-7.3-4.8-11.7-4.8c-2.8,0-5.6,0.7-8,2.1v5.6C94.2,42.5,97,41.4,100,41.4z"/>
	<path class="st1" d="M83.5,71.2h3.9V42.6c-2.5,3-3.9,6.7-3.9,10.7V71.2z"/>
	<path class="st1" d="M87.4,42.6v28.6h0.7V53.3c0-3.2,1.2-6.2,3.5-8.4c0.1-0.1,0.3-0.3,0.4-0.4v-5.6c-1.3,0.7-2.6,1.7-3.7,2.8
		C88,42,87.7,42.3,87.4,42.6z"/>
	<polygon class="st1" points="92,71.2 92,75.8 116.5,75.8 116.5,71.2 111.9,71.2 	"/>
	<rect x="83.5" y="71.2" class="st1" width="3.9" height="4.6"/>
	<polygon class="st1" points="92,75.8 92,71.2 88.1,71.2 87.4,71.2 87.4,75.8 	"/>
	<path class="st1" d="M97.7,95.6v-1.9h4.6v1.9c2.7-0.9,4.6-3.5,4.6-6.5c0-3.8-3.1-6.9-6.9-6.9s-6.9,3.1-6.9,6.9
		C93.1,92.1,95,94.6,97.7,95.6z M100,86.8c1.3,0,2.3,1,2.3,2.3s-1,2.3-2.3,2.3s-2.3-1-2.3-2.3S98.7,86.8,100,86.8z"/>
	<path class="st1" d="M97.7,95.6v5.5h4.6v-5.5c-0.7,0.3-1.5,0.4-2.3,0.4S98.4,95.9,97.7,95.6z"/>
	<path class="st1" d="M97.7,93.7v1.9c0.7,0.3,1.5,0.4,2.3,0.4s1.6-0.1,2.3-0.4v-1.9H97.7z"/>
</g>
</svg>
