<?xml version="1.0" encoding="utf-8"?>
<!-- Generator: Adobe Illustrator 22.1.0, SVG Export Plug-In . SVG Version: 6.00 Build 0)  -->
<svg version="1.1" id="Layer_1" xmlns="http://www.w3.org/2000/svg" xmlns:xlink="http://www.w3.org/1999/xlink" x="0px" y="0px"
	 viewBox="0 0 128.4 128.4" style="enable-background:new 0 0 128.4 128.4;" xml:space="preserve">
<style type="text/css">
	.st0{fill:#43D3E8;}
	.st1{fill:#242D3C;}
	.st2{fill:#F96232;}
	.st3{fill:#FFFFFF;}
	.st4{fill:#FF7A00;}
	.st5{fill:#F26134;}
	.st6{fill:none;stroke:#242D3C;stroke-width:5;stroke-miterlimit:10;}
	.st7{fill:none;stroke:#242D3C;stroke-width:4.5;stroke-miterlimit:10;}
	.st8{fill:none;stroke:#FFFFFF;stroke-width:4.5;stroke-miterlimit:10;}
	.st9{fill:#3485CD;}
	.st10{fill:none;stroke:#FFFFFF;stroke-width:4;stroke-linecap:round;stroke-miterlimit:10;}
	.st11{fill-rule:evenodd;clip-rule:evenodd;fill:#F96232;}
	.st12{fill-rule:evenodd;clip-rule:evenodd;fill:#43D3E8;}
	.st13{fill:none;stroke:#242D3C;stroke-width:2.5;stroke-linecap:round;stroke-miterlimit:10;}
	.st14{fill:none;stroke:#242D3C;stroke-width:2.8;stroke-linecap:round;stroke-miterlimit:10;}
	.st15{fill:none;stroke:#242D3C;stroke-width:4;stroke-linecap:round;stroke-miterlimit:10;}
	.st16{fill:none;stroke:#242D3C;stroke-width:1.7;stroke-linecap:round;stroke-miterlimit:10;}
	.st17{fill:none;stroke:#F26134;stroke-miterlimit:10;}
	.st18{fill:none;stroke:#242D3C;stroke-width:1.8;stroke-linecap:round;stroke-miterlimit:10;}
	.st19{fill:none;stroke:#242D3C;stroke-width:0.75;stroke-linecap:round;stroke-miterlimit:10;}
	.st20{fill:#56C7DF;}
	.st21{fill:none;stroke:#242D3C;stroke-width:4.4661;stroke-miterlimit:10;}
	.st22{fill:none;}
</style>
<g>
	<g>
		<polygon class="st4" points="84.3,74.3 56.7,101.9 45.3,90.4 17.5,118.2 128.2,118.2 		"/>
		
			<rect x="106.7" y="60.1" transform="matrix(0.707 -0.7072 0.7072 0.707 -26.9596 101.4514)" class="st1" width="4.5" height="46.4"/>
		<polygon class="st1" points="24.2,83.3 21,80.1 65,36.1 77.7,48.8 74.5,52 65,42.5 		"/>
		<g>
			<polygon class="st1" points="3.4,119.7 0.2,116.6 45.3,71.5 56.7,83 102,37.7 105.2,40.9 56.7,89.4 45.3,77.9 			"/>
			<polygon class="st1" points="105.9,53.1 101.4,53.1 101.4,41.6 89.8,41.6 89.8,37.1 105.9,37.1 			"/>
		</g>
		<g>
			<polygon class="st4" points="88.1,6.6 65,6.6 65,23.2 88.1,23.2 79.8,14.9 			"/>
			<rect x="62.7" y="6.6" class="st1" width="4.5" height="32.7"/>
		</g>
	</g>
</g>
</svg>
