<?xml version="1.0" encoding="utf-8"?>
<!-- Generator: Adobe Illustrator 22.1.0, SVG Export Plug-In . SVG Version: 6.00 Build 0)  -->
<svg version="1.1" id="Layer_1" xmlns="http://www.w3.org/2000/svg" xmlns:xlink="http://www.w3.org/1999/xlink" x="0px" y="0px"
	 viewBox="0 0 128.4 128.4" style="enable-background:new 0 0 128.4 128.4;" xml:space="preserve">
<style type="text/css">
	.st0{fill:#43D3E8;}
	.st1{fill:#242D3C;}
	.st2{fill:#F96232;}
	.st3{fill:#FFFFFF;}
	.st4{fill:#FF7A00;}
	.st5{fill:#F26134;}
	.st6{fill:none;stroke:#242D3C;stroke-width:5;stroke-miterlimit:10;}
	.st7{fill:none;stroke:#242D3C;stroke-width:4.5;stroke-miterlimit:10;}
	.st8{fill:none;stroke:#FFFFFF;stroke-width:4.5;stroke-miterlimit:10;}
	.st9{fill:#3485CD;}
	.st10{fill:none;stroke:#FFFFFF;stroke-width:4;stroke-linecap:round;stroke-miterlimit:10;}
	.st11{fill-rule:evenodd;clip-rule:evenodd;fill:#F96232;}
	.st12{fill-rule:evenodd;clip-rule:evenodd;fill:#43D3E8;}
	.st13{fill:none;stroke:#242D3C;stroke-width:2.5;stroke-linecap:round;stroke-miterlimit:10;}
	.st14{fill:none;stroke:#242D3C;stroke-width:2.8;stroke-linecap:round;stroke-miterlimit:10;}
	.st15{fill:none;stroke:#242D3C;stroke-width:4;stroke-linecap:round;stroke-miterlimit:10;}
	.st16{fill:none;stroke:#242D3C;stroke-width:1.7;stroke-linecap:round;stroke-miterlimit:10;}
	.st17{fill:none;stroke:#F26134;stroke-miterlimit:10;}
	.st18{fill:none;stroke:#242D3C;stroke-width:1.8;stroke-linecap:round;stroke-miterlimit:10;}
	.st19{fill:none;stroke:#242D3C;stroke-width:0.75;stroke-linecap:round;stroke-miterlimit:10;}
	.st20{fill:#56C7DF;}
	.st21{fill:none;stroke:#242D3C;stroke-width:4.4661;stroke-miterlimit:10;}
	.st22{fill:none;}
</style>
<g>
	<g>
		<g>
			<path class="st1" d="M64.2,128c-29.1,0-52.8-23.7-52.8-52.8c0-29.1,23.7-52.8,52.8-52.8c29.1,0,52.8,23.7,52.8,52.8
				C117,104.3,93.3,128,64.2,128z M64.2,27C37.6,27,16,48.7,16,75.2c0,26.6,21.6,48.2,48.2,48.2c26.6,0,48.2-21.6,48.2-48.2
				C112.4,48.7,90.8,27,64.2,27z"/>
			<circle class="st4" cx="64.3" cy="75.3" r="38.6"/>
			<g>
				<rect x="98.6" y="34" transform="matrix(0.7069 -0.7073 0.7073 0.7069 4.5728 83.5957)" class="st1" width="9.2" height="4.6"/>
				<rect x="104.1" y="26.1" transform="matrix(0.7072 -0.707 0.707 0.7072 7.8 84.9018)" class="st1" width="4.6" height="13.8"/>
			</g>
			<g>
				
					<rect x="23" y="31.7" transform="matrix(0.7071 -0.7072 0.7072 0.7071 -18.2547 28.4943)" class="st1" width="4.6" height="9.2"/>
				
					<rect x="15.1" y="30.7" transform="matrix(0.7072 -0.707 0.707 0.7072 -16.9078 25.2385)" class="st1" width="13.8" height="4.6"/>
			</g>
			<g>
				<rect x="61.9" y="9.1" class="st1" width="4.6" height="15.6"/>
				<path class="st1" d="M74.3,17.9H54.1c-2.3,0-4.5-0.9-6.2-2.6c-1.6-1.6-2.6-3.8-2.6-6.2c0-2.3,0.9-4.5,2.6-6.2
					c1.6-1.6,3.8-2.6,6.2-2.6h20.2c2.3,0,4.5,0.9,6.2,2.6C82.1,4.6,83,6.8,83,9.1c0,2.3-0.9,4.5-2.6,6.2
					C78.8,16.9,76.6,17.9,74.3,17.9z M54.1,5C53,5,52,5.4,51.2,6.2C50.4,7,50,8,50,9.1c0,1.1,0.4,2.1,1.2,2.9
					c0.8,0.8,1.8,1.2,2.9,1.2h20.2c1.1,0,2.1-0.4,2.9-1.2c0.8-0.8,1.2-1.8,1.2-2.9C78.4,8,78,7,77.2,6.2C76.4,5.4,75.4,5,74.3,5
					H54.1z"/>
			</g>
			<line class="st10" x1="64.1" y1="44.5" x2="64.1" y2="74.8"/>
			<line class="st10" x1="78.4" y1="89.1" x2="64.1" y2="74.8"/>
		</g>
	</g>
</g>
</svg>
