<?xml version="1.0" encoding="utf-8"?>
<!-- Generator: Adobe Illustrator 22.1.0, SVG Export Plug-In . SVG Version: 6.00 Build 0)  -->
<svg version="1.1" id="Layer_1" xmlns="http://www.w3.org/2000/svg" xmlns:xlink="http://www.w3.org/1999/xlink" x="0px" y="0px"
	 viewBox="0 0 128.4 128.4" style="enable-background:new 0 0 128.4 128.4;" xml:space="preserve">
<style type="text/css">
	.st0{fill:#43D3E8;}
	.st1{fill:#242D3C;}
	.st2{fill:#F96232;}
	.st3{fill:#FFFFFF;}
	.st4{fill:#FF7A00;}
	.st5{fill:#F26134;}
	.st6{fill:none;stroke:#242D3C;stroke-width:5;stroke-miterlimit:10;}
	.st7{fill:none;stroke:#242D3C;stroke-width:4.5;stroke-miterlimit:10;}
	.st8{fill:none;stroke:#FFFFFF;stroke-width:4.5;stroke-miterlimit:10;}
	.st9{fill:#3485CD;}
	.st10{fill:none;stroke:#FFFFFF;stroke-width:4;stroke-linecap:round;stroke-miterlimit:10;}
	.st11{fill-rule:evenodd;clip-rule:evenodd;fill:#F96232;}
	.st12{fill-rule:evenodd;clip-rule:evenodd;fill:#43D3E8;}
	.st13{fill:none;stroke:#242D3C;stroke-width:2.5;stroke-linecap:round;stroke-miterlimit:10;}
	.st14{fill:none;stroke:#242D3C;stroke-width:2.8;stroke-linecap:round;stroke-miterlimit:10;}
	.st15{fill:none;stroke:#242D3C;stroke-width:4;stroke-linecap:round;stroke-miterlimit:10;}
	.st16{fill:none;stroke:#242D3C;stroke-width:1.7;stroke-linecap:round;stroke-miterlimit:10;}
	.st17{fill:none;stroke:#F26134;stroke-miterlimit:10;}
	.st18{fill:none;stroke:#242D3C;stroke-width:1.8;stroke-linecap:round;stroke-miterlimit:10;}
	.st19{fill:none;stroke:#242D3C;stroke-width:0.75;stroke-linecap:round;stroke-miterlimit:10;}
	.st20{fill:#56C7DF;}
	.st21{fill:none;stroke:#242D3C;stroke-width:4.4661;stroke-miterlimit:10;}
	.st22{fill:none;}
</style>
<g>
	<g>
		<path class="st1" d="M117.3,121.9H11.1V56.6l53.1-38.3l53.1,38.3V121.9z M16,117.1h96.5v-58L64.2,24.2L16,59.1V117.1z"/>
		<polygon class="st4" points="25.1,64.9 25.1,8.6 103.3,8.6 103.3,64.9 64.2,88.7 		"/>
		<rect x="59.9" y="70.8" transform="matrix(0.8541 -0.52 0.52 0.8541 -25.0316 57.2458)" class="st1" width="59.3" height="4.8"/>
		
			<rect x="36.5" y="43.6" transform="matrix(0.5201 -0.8541 0.8541 0.5201 -43.9001 68.3569)" class="st1" width="4.8" height="59.3"/>
		<polygon class="st1" points="14.8,121.6 12.3,117.4 64.2,85.8 116.1,117.4 113.6,121.6 64.2,91.5 		"/>
		<g>
			<path class="st3" d="M64.2,66.3c-12,0-21.7-9.7-21.7-21.7c0-12,9.7-21.7,21.7-21.7c12,0,21.7,9.7,21.7,21.7
				c0,1.3-1.1,2.4-2.4,2.4c-1.3,0-2.4-1.1-2.4-2.4c0-9.3-7.6-16.9-16.9-16.9c-9.3,0-16.9,7.6-16.9,16.9c0,9.3,7.6,16.9,16.9,16.9
				c3,0,5.9-0.8,8.4-2.3c1.2-0.7,2.6-0.3,3.3,0.9c0.7,1.2,0.3,2.6-0.9,3.3C71.8,65.3,68,66.3,64.2,66.3z"/>
			<path class="st3" d="M64.2,56.7c-6.6,0-12.1-5.4-12.1-12.1c0-6.6,5.4-12.1,12.1-12.1c6.6,0,12.1,5.4,12.1,12.1
				C76.3,51.3,70.9,56.7,64.2,56.7z M64.2,37.4c-4,0-7.2,3.2-7.2,7.2c0,4,3.2,7.2,7.2,7.2c4,0,7.2-3.2,7.2-7.2
				C71.4,40.6,68.2,37.4,64.2,37.4z"/>
			<path class="st3" d="M78.7,56.7c-1.9,0-3.7-0.8-5.1-2.1c-1.4-1.3-2.1-3.2-2.1-5.1v-4.8c0-1.3,1.1-2.4,2.4-2.4
				c1.3,0,2.4,1.1,2.4,2.4v4.8c0,0.6,0.2,1.3,0.7,1.7c0.9,0.9,2.5,0.9,3.4,0c0.4-0.4,0.7-1,0.7-1.7v-4.8c0-1.3,1.1-2.4,2.4-2.4
				c1.3,0,2.4,1.1,2.4,2.4v4.8c0,1.9-0.7,3.7-2.1,5.1C82.4,55.9,80.6,56.7,78.7,56.7z"/>
		</g>
		<g>
			<rect x="53.4" y="108" class="st1" width="4.3" height="4.8"/>
			<rect x="62" y="108" class="st1" width="4.3" height="4.8"/>
			<rect x="70.7" y="108" class="st1" width="4.3" height="4.8"/>
		</g>
	</g>
</g>
</svg>
