<svg id="OBJECTS" xmlns="http://www.w3.org/2000/svg" viewBox="0 0 336.88 65.73"><defs><style>.cls-1{fill:#202020;}.cls-2{fill:#1c73b7;}.cls-3{fill:#fff;}.cls-4{fill:none;}</style></defs><title>автосфера</title><circle class="cls-1" cx="163.39" cy="33.27" r="27.12"/><path class="cls-2" d="M152.54,51.91a18.56,18.56,0,0,1-7.27-6.29,19.47,19.47,0,0,1-3.61-9l-9.44-13.27-.11.24a26.38,26.38,0,0,0-2,14.68,31.22,31.22,0,0,0,5.54,14.19,29.61,29.61,0,0,0,19.47,12.64,29,29,0,0,0,7.1.39Z"/><path class="cls-2" d="M184.7,29a18.64,18.64,0,0,0-3.56-8.94,19.63,19.63,0,0,0-7.31-6.35L164.39.48l.26,0a26.39,26.39,0,0,1,14.53,2.91,31.29,31.29,0,0,1,11.58,9.88q7.47,10.52,5.56,22.55a28.91,28.91,0,0,1-1.95,6.83Z"/><path class="cls-3" d="M164.15,16.36a17.6,17.6,0,0,1,8.29,2.08,14.9,14.9,0,0,1,6.06,5.7.65.65,0,0,1-.12,1l-3.8,2.9c-.4.4-.78.36-1.15-.12A11,11,0,0,0,164.15,23a9.65,9.65,0,0,0-7.26,2.84,10.12,10.12,0,0,0-2.74,7.35,10.36,10.36,0,0,0,2.77,7.44,9.52,9.52,0,0,0,7.23,2.93,10.84,10.84,0,0,0,9.47-5.07.65.65,0,0,1,1,0l3.8,3a.66.66,0,0,1,.12,1,15.63,15.63,0,0,1-6,5.73,17.37,17.37,0,0,1-8.32,2,16.64,16.64,0,0,1-17-17,16.16,16.16,0,0,1,4.89-12A16.61,16.61,0,0,1,164.15,16.36Z"/><path class="cls-1" d="M28.89,48.85,26.6,43.19H10.2L7.91,49a1.05,1.05,0,0,1-1,.73h-6c-.6,0-.8-.28-.6-.85L14.54,17.33a.76.76,0,0,1,.79-.49H22.2a.75.75,0,0,1,.78.49l13.57,31.4a.76.76,0,0,1-.06.66.65.65,0,0,1-.61.31H30.16A1.27,1.27,0,0,1,28.89,48.85ZM18.22,23.35,12.74,36.86H24.19L18.88,23.35Z"/><path class="cls-1" d="M63.87,31.67v.42a8.66,8.66,0,0,1,4.19,3,7.52,7.52,0,0,1,1.48,4.64,9.22,9.22,0,0,1-3.1,7.23,11.81,11.81,0,0,1-8.17,2.78H40.91a.75.75,0,0,1-.85-.85V17.69a.76.76,0,0,1,.85-.85H57a10.86,10.86,0,0,1,7.48,2.57,8.19,8.19,0,0,1,2.89,6.42A6.11,6.11,0,0,1,63.87,31.67ZM47,23.35v6.27H57.06a3.45,3.45,0,0,0,2.41-.87,2.89,2.89,0,0,0,1-2.26,3,3,0,0,0-.91-2.29,3.48,3.48,0,0,0-2.47-.85Zm0,12.78v7H58.09a5.16,5.16,0,0,0,3.28-.94,3.08,3.08,0,0,0,1.18-2.56q0-3.5-4.46-3.5Z"/><path class="cls-1" d="M72,16.84h28a.75.75,0,0,1,.84.85v4.94a.74.74,0,0,1-.84.84H89.46V48.85a.75.75,0,0,1-.84.85H83.31a.75.75,0,0,1-.84-.85V23.47H72a.74.74,0,0,1-.84-.84V17.69A.75.75,0,0,1,72,16.84Z"/><path class="cls-1" d="M101.75,33.3a16.09,16.09,0,0,1,5.07-12.06,17.74,17.74,0,0,1,24.44,0,16.17,16.17,0,0,1,5,12.06,16.07,16.07,0,0,1-5,12,17.9,17.9,0,0,1-24.47,0A16,16,0,0,1,101.75,33.3Zm17.3-10.37a9.94,9.94,0,0,0-7.38,2.9,10.15,10.15,0,0,0-2.87,7.47,10.08,10.08,0,0,0,2.87,7.41,9.94,9.94,0,0,0,7.38,2.9,9.82,9.82,0,0,0,7.33-2.93,10.14,10.14,0,0,0,2.86-7.38,10.19,10.19,0,0,0-2.86-7.47A9.87,9.87,0,0,0,119.05,22.93Z"/><path class="cls-1" d="M206.37,20.85V17.78a.75.75,0,0,1,.84-.85h5.25a.75.75,0,0,1,.84.85v3.07h4.89a13.29,13.29,0,0,1,9.16,3.53,11.52,11.52,0,0,1,3.92,9,11.36,11.36,0,0,1-3.92,8.86,13.35,13.35,0,0,1-9.16,3.5H213.3v3.73a.75.75,0,0,1-.84.85h-5.25a.75.75,0,0,1-.84-.85V45.69h-4.88a13.36,13.36,0,0,1-9.17-3.5,11.35,11.35,0,0,1-3.91-8.86,11.51,11.51,0,0,1,3.91-8.95,13.3,13.3,0,0,1,9.17-3.53Zm0,18.39V27.3h-4.7a6.29,6.29,0,0,0-4.55,1.6,5.85,5.85,0,0,0-1.66,4.43,5.64,5.64,0,0,0,1.66,4.37,6.4,6.4,0,0,0,4.55,1.54ZM213.3,27.3V39.24H218a6.4,6.4,0,0,0,4.55-1.54,5.64,5.64,0,0,0,1.66-4.37,5.85,5.85,0,0,0-1.66-4.43A6.29,6.29,0,0,0,218,27.3Z"/><polygon class="cls-4" points="286.24 24.05 277.5 24.05 277.5 24.05 286.24 24.05 286.24 24.05"/><polygon class="cls-4" points="315.46 30.04 312.46 37.43 323.91 37.43 318.61 23.93 318.4 23.93 318.4 30.04 315.46 30.04"/><path class="cls-1" d="M263.39,23.08V18.26a.74.74,0,0,0-.84-.84H238.14a.85.85,0,0,0-.58.24.77.77,0,0,0-.27.6v5.65h25.35A.72.72,0,0,0,263.39,23.08Z"/><path class="cls-1" d="M263,43.7H244.28V36.59h16a.75.75,0,0,0,.84-.85V30.92a.74.74,0,0,0-.84-.84l-23,0V49.42a.75.75,0,0,0,.85.85H263a.75.75,0,0,0,.84-.85V44.54A.74.74,0,0,0,263,43.7Z"/><path class="cls-1" d="M286.24,17.42H271.35a.74.74,0,0,0-.84.84v5.79h15.75a5.85,5.85,0,0,1,4.23,1.47A5.18,5.18,0,0,1,292,29.41a5.33,5.33,0,0,1-1.53,4,5.8,5.8,0,0,1-4.25,1.51H277.5V30h-7V49.42a.75.75,0,0,0,.84.85h5.3a.75.75,0,0,0,.85-.85V41.53h8.74a12.81,12.81,0,0,0,9.13-3.44A11.42,11.42,0,0,0,299,29.41a11.28,11.28,0,0,0-3.68-8.53A12.76,12.76,0,0,0,286.24,17.42Z"/><path class="cls-1" d="M336.27,49.3,322.71,17.9a.76.76,0,0,0-.79-.48h-6.87a.74.74,0,0,0-.78.48l-2.72,6h7.05l5.31,13.52H312.46l3-7.39h-6.67L300,49.42c-.2.57,0,.85.6.85h6a1.05,1.05,0,0,0,1-.72l2.29-5.79h16.39l2.29,5.66a1.28,1.28,0,0,0,1.27.85h5.73a.64.64,0,0,0,.6-.3A.78.78,0,0,0,336.27,49.3Z"/><path class="cls-3" d="M286.26,24.05h0Z"/></svg>