<?xml version="1.0" standalone="no"?>
<!DOCTYPE svg PUBLIC "-//W3C//DTD SVG 20010904//EN"
 "http://www.w3.org/TR/2001/REC-SVG-20010904/DTD/svg10.dtd">
<svg version="1.0" xmlns="http://www.w3.org/2000/svg"
 width="512.000000pt" height="512.000000pt" viewBox="0 0 512.000000 512.000000"
 preserveAspectRatio="xMidYMid meet">

<g transform="translate(0.000000,512.000000) scale(0.100000,-0.100000)"
fill="#ff7a00" stroke="none">
<path d="M2435 4367 c-22 -8 -56 -22 -75 -32 -42 -22 -2056 -1308 -2156 -1377
-238 -163 -271 -480 -71 -680 138 -138 358 -167 527 -70 25 15 462 293 973
619 l927 592 928 -593 c510 -326 947 -604 972 -618 168 -98 385 -70 526 67
123 121 164 307 103 470 -26 69 -90 154 -149 198 -88 65 -2156 1381 -2210
1406 -45 21 -73 26 -155 28 -63 2 -115 -2 -140 -10z"/>
<path d="M2420 2947 c-83 -29 -2194 -1375 -2280 -1454 -199 -183 -178 -508 41
-669 132 -96 317 -112 460 -38 19 9 456 286 971 615 516 330 942 599 948 599
6 0 434 -270 951 -601 516 -330 965 -612 997 -627 51 -24 68 -27 172 -27 110
0 118 2 182 33 92 45 158 107 201 190 95 181 62 391 -83 525 -85 79 -2197
1425 -2280 1454 -88 30 -192 30 -280 0z"/>
</g>
</svg>
